<?xml version="1.0" encoding="UTF-8" standalone="no"?>
<svg
   width="16"
   height="16"
   fill="currentColor"
   class="bi bi-table"
   viewBox="0 0 16 16"
   version="1.1"
   id="svg11"
   sodipodi:docname="table-toggle-header-row.svg"
   inkscape:version="1.1 (c4e8f9ed74, 2021-05-24)"
   xmlns:inkscape="http://www.inkscape.org/namespaces/inkscape"
   xmlns:sodipodi="http://sodipodi.sourceforge.net/DTD/sodipodi-0.dtd"
   xmlns="http://www.w3.org/2000/svg"
   xmlns:svg="http://www.w3.org/2000/svg">
  <defs
     id="defs15" />
  <sodipodi:namedview
     id="namedview13"
     pagecolor="#ffffff"
     bordercolor="#666666"
     borderopacity="1.0"
     inkscape:pageshadow="2"
     inkscape:pageopacity="0.0"
     inkscape:pagecheckerboard="0"
     showgrid="false"
     inkscape:zoom="51"
     inkscape:cx="8"
     inkscape:cy="7.9803922"
     inkscape:window-width="1920"
     inkscape:window-height="1051"
     inkscape:window-x="1920"
     inkscape:window-y="0"
     inkscape:window-maximized="1"
     inkscape:current-layer="svg11" />
  <path
     d="M0 2a2 2 0 0 1 2-2h12a2 2 0 0 1 2 2v12a2 2 0 0 1-2 2H2a2 2 0 0 1-2-2V2zm15 2h-4v3h4V4zm0 4h-4v3h4V8zm0 4h-4v3h3a1 1 0 0 0 1-1v-2zm-5 3v-3H6v3h4zm-5 0v-3H1v2a1 1 0 0 0 1 1h3zm-4-4h4V8H1v3zm0-4h4V4H1v3zm5-3v3h4V4H6zm4 4H6v3h4V8z"
     id="path9" />
  <path
     style="fill:none;fill-rule:evenodd;stroke:#000000;stroke-width:1.10121px;stroke-linecap:butt;stroke-linejoin:miter;stroke-opacity:1"
     d="M 1,4 V 7.6379598"
     id="path150" />
  <path
     style="fill:none;fill-rule:evenodd;stroke:#000000;stroke-width:1.10121px;stroke-linecap:butt;stroke-linejoin:miter;stroke-opacity:1"
     d="M 5,4 V 7.6379598"
     id="path150-3" />
  <path
     style="fill:none;fill-rule:evenodd;stroke:#000000;stroke-width:1.10121px;stroke-linecap:butt;stroke-linejoin:miter;stroke-opacity:1"
     d="M 10,4 V 7.6379598"
     id="path150-3-7" />
  <path
     style="fill:none;fill-rule:evenodd;stroke:#000000;stroke-width:1.10121px;stroke-linecap:butt;stroke-linejoin:miter;stroke-opacity:1"
     d="M 11,4 V 7.6379598"
     id="path150-3-7-5" />
  <path
     style="fill:none;fill-rule:evenodd;stroke:#000000;stroke-width:1.10121px;stroke-linecap:butt;stroke-linejoin:miter;stroke-opacity:1"
     d="M 15,4 V 7.6379598"
     id="path150-3-7-5-3" />
  <path
     style="fill:none;fill-rule:evenodd;stroke:#000000;stroke-width:1.10121px;stroke-linecap:butt;stroke-linejoin:miter;stroke-opacity:1"
     d="M 6,4 V 7.6379598"
     id="path150-3-6" />
  <path
     style="fill:none;fill-rule:evenodd;stroke:#000000;stroke-width:1px;stroke-linecap:butt;stroke-linejoin:miter;stroke-opacity:1"
     d="M 1,7 H 15"
     id="path400" />
</svg>
