<?xml version="1.0" encoding="UTF-8" standalone="no"?>
<svg
   width="16"
   height="16"
   fill="currentColor"
   class="bi bi-table"
   viewBox="0 0 16 16"
   version="1.1"
   id="svg542"
   sodipodi:docname="table-toggle-header-column.svg"
   inkscape:version="1.1 (c4e8f9ed74, 2021-05-24)"
   xmlns:inkscape="http://www.inkscape.org/namespaces/inkscape"
   xmlns:sodipodi="http://sodipodi.sourceforge.net/DTD/sodipodi-0.dtd"
   xmlns="http://www.w3.org/2000/svg"
   xmlns:svg="http://www.w3.org/2000/svg">
  <defs
     id="defs546" />
  <sodipodi:namedview
     id="namedview544"
     pagecolor="#ffffff"
     bordercolor="#666666"
     borderopacity="1.0"
     inkscape:pageshadow="2"
     inkscape:pageopacity="0.0"
     inkscape:pagecheckerboard="0"
     showgrid="false"
     inkscape:zoom="41.25"
     inkscape:cx="7.9878788"
     inkscape:cy="7.9757576"
     inkscape:window-width="1920"
     inkscape:window-height="1051"
     inkscape:window-x="1920"
     inkscape:window-y="0"
     inkscape:window-maximized="1"
     inkscape:current-layer="svg542" />
  <path
     d="M0 2a2 2 0 0 1 2-2h12a2 2 0 0 1 2 2v12a2 2 0 0 1-2 2H2a2 2 0 0 1-2-2V2zm15 2h-4v3h4V4zm0 4h-4v3h4V8zm0 4h-4v3h3a1 1 0 0 0 1-1v-2zm-5 3v-3H6v3h4zm-5 0v-3H1v2a1 1 0 0 0 1 1h3zm-4-4h4V8H1v3zm0-4h4V4H1v3zm5-3v3h4V4H6zm4 4H6v3h4V8z"
     id="path540" />
  <path
     style="fill:none;fill-rule:evenodd;stroke:#000000;stroke-width:1.633px;stroke-linecap:butt;stroke-linejoin:miter;stroke-opacity:1"
     d="m 1,4 v 8"
     id="path150" />
  <path
     style="fill:none;fill-rule:evenodd;stroke:#000000;stroke-width:1.91486px;stroke-linecap:butt;stroke-linejoin:miter;stroke-opacity:1"
     d="M 5,4 V 15"
     id="path150-3" />
  <path
     style="fill:none;fill-rule:evenodd;stroke:#000000;stroke-width:0.534522px;stroke-linecap:butt;stroke-linejoin:miter;stroke-opacity:1"
     d="M 1,7 H 5"
     id="path400" />
  <path
     style="fill:none;fill-rule:evenodd;stroke:#000000;stroke-width:0.534522px;stroke-linecap:butt;stroke-linejoin:miter;stroke-opacity:1"
     d="M 1,8 H 5"
     id="path400-6" />
  <path
     style="fill:none;fill-rule:evenodd;stroke:#000000;stroke-width:0.534522px;stroke-linecap:butt;stroke-linejoin:miter;stroke-opacity:1"
     d="M 1,11 H 5"
     id="path400-6-2" />
  <path
     style="fill:none;fill-rule:evenodd;stroke:#000000;stroke-width:0.534522px;stroke-linecap:butt;stroke-linejoin:miter;stroke-opacity:1"
     d="M 1,12 H 5"
     id="path400-6-2-1" />
</svg>
