<?xml version="1.0" encoding="UTF-8" standalone="no"?>
<svg
   width="16"
   height="16"
   fill="currentColor"
   class="bi bi-table"
   viewBox="0 0 16 16"
   version="1.1"
   id="svg3354"
   sodipodi:docname="table-add-row-after.svg"
   inkscape:version="1.1 (c4e8f9ed74, 2021-05-24)"
   xmlns:inkscape="http://www.inkscape.org/namespaces/inkscape"
   xmlns:sodipodi="http://sodipodi.sourceforge.net/DTD/sodipodi-0.dtd"
   xmlns="http://www.w3.org/2000/svg"
   xmlns:svg="http://www.w3.org/2000/svg">
  <defs
     id="defs3358" />
  <sodipodi:namedview
     id="namedview3356"
     pagecolor="#ffffff"
     bordercolor="#666666"
     borderopacity="1.0"
     inkscape:pageshadow="2"
     inkscape:pageopacity="0.0"
     inkscape:pagecheckerboard="0"
     showgrid="false"
     inkscape:zoom="41.25"
     inkscape:cx="7.9636364"
     inkscape:cy="8"
     inkscape:window-width="1920"
     inkscape:window-height="1051"
     inkscape:window-x="1920"
     inkscape:window-y="0"
     inkscape:window-maximized="1"
     inkscape:current-layer="svg3354" />
  <path
     d="M0 2a2 2 0 0 1 2-2h12a2 2 0 0 1 2 2v12a2 2 0 0 1-2 2H2a2 2 0 0 1-2-2V2zm15 2h-4v3h4V4zm0 4h-4v3h4V8zm0 4h-4v3h3a1 1 0 0 0 1-1v-2zm-5 3v-3H6v3h4zm-5 0v-3H1v2a1 1 0 0 0 1 1h3zm-4-4h4V8H1v3zm0-4h4V4H1v3zm5-3v3h4V4H6zm4 4H6v3h4V8z"
     id="path3352" />
  <path
     style="fill:none;fill-rule:evenodd;stroke:#000000;stroke-width:0.999849px;stroke-linecap:butt;stroke-linejoin:miter;stroke-opacity:1"
     d="m 8.0000743,12.25023 c -0.00115,2.49928 -0.00115,2.49928 -0.00115,2.49928"
     id="path4653" />
  <path
     style="fill:none;fill-rule:evenodd;stroke:#000000;stroke-width:0.999849px;stroke-linecap:butt;stroke-linejoin:miter;stroke-opacity:1"
     d="m 9.24964,13.501124 c -2.49928,-0.0012 -2.49928,-0.0012 -2.49928,-0.0012"
     id="path4653-5" />
  <rect
     style="color:#000000;font-variation-settings:normal;overflow:visible;opacity:1;vector-effect:none;fill:#ffffff;fill-opacity:1;stroke:#000000;stroke-width:0.997796px;stroke-linecap:butt;stroke-linejoin:miter;stroke-miterlimit:4;stroke-dasharray:none;stroke-dashoffset:0;stroke-opacity:1;-inkscape-stroke:none;stop-color:#000000;stop-opacity:1"
     id="rect6127"
     width="14.85706"
     height="4.1472244"
     x="0.56688565"
     y="7.4507208" />
  <path
     style="fill:none;fill-rule:evenodd;stroke:#000000;stroke-width:1.0321px;stroke-linecap:butt;stroke-linejoin:miter;stroke-opacity:1"
     d="M 2.5232535,7.1968779 C 0.47674645,11.803123 0.47674645,11.803123 0.47674645,11.803123"
     id="path4653-0" />
  <path
     style="fill:none;fill-rule:evenodd;stroke:#000000;stroke-width:1.0321px;stroke-linecap:butt;stroke-linejoin:miter;stroke-opacity:1"
     d="M 5.1181066,7.1968779 C 3.0715995,11.803123 3.0715995,11.803123 3.0715995,11.803123"
     id="path4653-0-2" />
  <path
     style="fill:none;fill-rule:evenodd;stroke:#000000;stroke-width:1.0321px;stroke-linecap:butt;stroke-linejoin:miter;stroke-opacity:1"
     d="M 7.7181066,7.1968779 C 5.6715995,11.803123 5.6715995,11.803123 5.6715995,11.803123"
     id="path4653-0-2-6" />
  <path
     style="fill:none;fill-rule:evenodd;stroke:#000000;stroke-width:1.0321px;stroke-linecap:butt;stroke-linejoin:miter;stroke-opacity:1"
     d="M 10.318107,7.1968779 C 8.2715995,11.803123 8.2715995,11.803123 8.2715995,11.803123"
     id="path4653-0-2-6-1" />
  <path
     style="fill:none;fill-rule:evenodd;stroke:#000000;stroke-width:1.0321px;stroke-linecap:butt;stroke-linejoin:miter;stroke-opacity:1"
     d="M 12.918107,7.1968779 C 10.8716,11.803123 10.8716,11.803123 10.8716,11.803123"
     id="path4653-0-2-6-1-8" />
  <path
     style="fill:none;fill-rule:evenodd;stroke:#000000;stroke-width:1.0321px;stroke-linecap:butt;stroke-linejoin:miter;stroke-opacity:1"
     d="M 15.518107,7.1965391 C 13.4716,11.802784 13.4716,11.802784 13.4716,11.802784"
     id="path4653-0-6" />
</svg>
