<?xml version="1.0" encoding="UTF-8" standalone="no"?>
<svg
   width="16"
   height="16"
   fill="currentColor"
   class="bi bi-table"
   viewBox="0 0 16 16"
   version="1.1"
   id="svg8173"
   sodipodi:docname="table-remove-column.svg"
   inkscape:version="1.1 (c4e8f9ed74, 2021-05-24)"
   xmlns:inkscape="http://www.inkscape.org/namespaces/inkscape"
   xmlns:sodipodi="http://sodipodi.sourceforge.net/DTD/sodipodi-0.dtd"
   xmlns="http://www.w3.org/2000/svg"
   xmlns:svg="http://www.w3.org/2000/svg">
  <defs
     id="defs8177" />
  <sodipodi:namedview
     id="namedview8175"
     pagecolor="#ffffff"
     bordercolor="#666666"
     borderopacity="1.0"
     inkscape:pageshadow="2"
     inkscape:pageopacity="0.0"
     inkscape:pagecheckerboard="0"
     showgrid="false"
     inkscape:zoom="41.25"
     inkscape:cx="7.9878788"
     inkscape:cy="8"
     inkscape:window-width="1920"
     inkscape:window-height="1051"
     inkscape:window-x="1920"
     inkscape:window-y="0"
     inkscape:window-maximized="1"
     inkscape:current-layer="svg8173" />
  <path
     d="M0 2a2 2 0 0 1 2-2h12a2 2 0 0 1 2 2v12a2 2 0 0 1-2 2H2a2 2 0 0 1-2-2V2zm15 2h-4v3h4V4zm0 4h-4v3h4V8zm0 4h-4v3h3a1 1 0 0 0 1-1v-2zm-5 3v-3H6v3h4zm-5 0v-3H1v2a1 1 0 0 0 1 1h3zm-4-4h4V8H1v3zm0-4h4V4H1v3zm5-3v3h4V4H6zm4 4H6v3h4V8z"
     id="path8171" />
  <rect
     style="color:#000000;overflow:visible;fill:#ffffff;stroke:#000000;stroke-width:0.998262px;-inkscape-stroke:none;stop-color:#000000"
     id="rect8507"
     width="5.5042977"
     height="12.001738"
     x="5.4042311"
     y="3.4377778" />
  <path
     style="fill:none;fill-rule:evenodd;stroke:#000000;stroke-width:0.999849px;stroke-linecap:butt;stroke-linejoin:miter;stroke-opacity:1"
     d="M 7.1163034,8.6161988 C 8.8827127,10.384305 8.8827127,10.384305 8.8827127,10.384305"
     id="path4653" />
  <path
     style="fill:none;fill-rule:evenodd;stroke:#000000;stroke-width:0.922721px;stroke-linecap:butt;stroke-linejoin:miter;stroke-opacity:1"
     d="M 5.6469054,3.4374968 C 10.853095,5.1803443 10.853095,5.1803443 10.853095,5.1803443"
     id="path9215" />
  <path
     style="fill:none;fill-rule:evenodd;stroke:#000000;stroke-width:0.999849px;stroke-linecap:butt;stroke-linejoin:miter;stroke-opacity:1"
     d="M 8.8843956,8.6171378 C 7.1162893,10.383547 7.1162893,10.383547 7.1162893,10.383547"
     id="path4653-5" />
  <path
     style="fill:none;fill-rule:evenodd;stroke:#000000;stroke-width:0.922721px;stroke-linecap:butt;stroke-linejoin:miter;stroke-opacity:1"
     d="M 5.6469054,6.0374968 C 10.853095,7.7803443 10.853095,7.7803443 10.853095,7.7803443"
     id="path9215-3" />
  <path
     style="fill:none;fill-rule:evenodd;stroke:#000000;stroke-width:0.922721px;stroke-linecap:butt;stroke-linejoin:miter;stroke-opacity:1"
     d="m 5.6469054,11.237497 c 5.2061896,1.742848 5.2061896,1.742848 5.2061896,1.742848"
     id="path9215-3-1-2" />
  <path
     style="fill:none;fill-rule:evenodd;stroke:#000000;stroke-width:0.922721px;stroke-linecap:butt;stroke-linejoin:miter;stroke-opacity:1"
     d="m 5.6469054,13.837497 c 5.2061896,1.742848 5.2061896,1.742848 5.2061896,1.742848"
     id="path9215-3-1-2-9" />
</svg>
